Coordinates
version=1
nRows=16
nColumns=40
inDegrees=yes

Units are S.I. units (second, meters, Newtons, ...)
If the header above contains a line with 'inDegrees', this indicates whether rotational values are in degrees (yes) or radians (no).

endheader
time	pelvis_tilt	pelvis_list	pelvis_rotation	pelvis_tx	pelvis_ty	pelvis_tz	hip_flexion_r	hip_adduction_r	hip_rotation_r	knee_angle_r	knee_angle_r_beta	ankle_angle_r	subtalar_angle_r	mtp_angle_r	hip_flexion_l	hip_adduction_l	hip_rotation_l	knee_angle_l	knee_angle_l_beta	ankle_angle_l	subtalar_angle_l	mtp_angle_l	lumbar_extension	lumbar_bending	lumbar_rotation	arm_flex_r	arm_add_r	arm_rot_r	elbow_flex_r	pro_sup_r	wrist_flex_r	wrist_dev_r	arm_flex_l	arm_add_l	arm_rot_l	elbow_flex_l	pro_sup_l	wrist_flex_l	wrist_dev_l
      4.70000000	     -9.57244311	      2.58122760	     -3.17692128	      1.25134744	      1.00672889	     -0.47072471	     31.38517221	     -2.62961282	      7.37229235	      0.98246558	      0.01714726	      8.34329494	      0.00000000	      0.00000000	     -4.13344303	      3.50907315	     -4.27932537	      7.93934207	      0.13856766	     10.58788491	      0.00000000	      0.00000000	     -4.38911999	      1.25324301	     -0.85492863	    -10.51782271	     -8.28587205	     -8.44951994	     40.74022476	     73.97453462	      0.00000000	      0.00000000	      1.21097431	     -9.19095437	      5.10867180	     47.06446298	     67.31181610	      0.00000000	      0.00000000
      4.71000000	     -9.46793613	      2.76581717	     -3.01448815	      1.25214983	      1.00456140	     -0.47007105	     31.70842211	     -2.84319946	      6.94862131	      0.63614231	      0.01110278	      9.06704183	      0.00000000	      0.00000000	     -4.76952771	      3.65834009	     -4.09388092	      8.57264502	      0.14962088	     10.80882338	      0.00000000	      0.00000000	     -4.44079512	      1.12704672	     -0.82313045	    -10.65269777	     -8.23736834	     -8.49906227	     40.58529610	     73.99941640	      0.00000000	      0.00000000	      1.30562928	     -8.93517138	      5.11948642	     46.86335402	     67.26080024	      0.00000000	      0.00000000
      4.72000000	     -9.43728395	      2.83442550	     -2.94243509	      1.25353269	      1.00233632	     -0.46933546	     31.97485559	     -2.91318445	      6.64090893	      0.56625696	      0.00988305	      9.39670797	      0.00000000	      0.00000000	     -5.45237315	      3.68735339	     -3.94546402	      8.98668718	      0.15684728	     10.82306457	      0.00000000	      0.00000000	     -4.31623830	      1.15998234	     -0.68767515	    -10.85867361	     -8.28050433	     -8.50871006	     40.44512464	     74.00749687	      0.00000000	      0.00000000	      1.17475851	     -8.64696865	      5.13815538	     46.82082964	     67.24763633	      0.00000000	      0.00000000
      4.73000000	     -8.90638075	      2.51615312	     -2.41481614	      1.25528085	      1.00101277	     -0.46904757	     31.42023121	     -2.89077589	      5.58123071	      0.73383306	      0.01280780	     10.16806356	      0.00000000	      0.00000000	     -6.22526126	      3.17905668	     -3.72233024	     10.43677122	      0.18215602	     11.25701889	      0.00000000	      0.00000000	     -4.76620080	      1.59627329	     -0.90681457	    -10.97955113	     -8.33913336	     -8.57542125	     40.24973803	     74.07075486	      0.00000000	      0.00000000	      1.28886607	     -8.23010647	      5.11154785	     46.32603848	     67.16348815	      0.00000000	      0.00000000
      4.74000000	     -8.47404170	      2.20434035	     -2.07340093	      1.25733298	      0.99955445	     -0.46853195	     30.85368562	     -2.79293453	      5.06695002	      1.17056633	      0.02043024	     10.44037698	      0.00000000	      0.00000000	     -6.99683261	      2.67551061	     -3.58001813	     11.64574588	      0.20325661	     11.36590911	      0.00000000	      0.00000000	     -5.04955329	      2.05518133	     -0.96178517	    -11.17045135	     -8.47799921	     -8.55857120	     40.14813704	     74.13518127	      0.00000000	      0.00000000	      1.20689836	     -7.81919837	      5.02009922	     46.00847269	     67.09274204	      0.00000000	      0.00000000
      4.75000000	     -8.05533584	      1.94232611	     -1.77580415	      1.25943306	      0.99811463	     -0.46794825	     30.41884768	     -2.70682673	      4.59855039	      2.31347275	      0.04037772	     10.63234805	      0.00000000	      0.00000000	     -7.69949818	      2.20003459	     -3.48949041	     12.92208821	      0.22553299	     11.29032070	      0.00000000	      0.00000000	     -5.30320066	      2.46776973	     -0.98091834	    -11.33981052	     -8.60582069	     -8.49575712	     40.08687211	     74.18884469	      0.00000000	      0.00000000	      1.05288528	     -7.37942191	      4.84773087	     45.72554819	     67.03246921	      0.00000000	      0.00000000
      4.76000000	     -7.79414047	      1.71689689	     -1.48163958	      1.26158566	      0.99636331	     -0.46740134	     30.37519645	     -2.63223527	      3.92106574	      4.19278311	      0.07317787	     10.78322611	      0.00000000	      0.00000000	     -8.05575267	      1.72908768	     -3.55941612	     14.53814548	      0.25373851	     11.23086977	      0.00000000	      0.00000000	     -5.34505695	      2.87349963	     -1.01879379	    -11.55412269	     -8.78994270	     -8.41597874	     40.08012295	     74.25977499	      0.00000000	      0.00000000	      0.79770340	     -6.95734112	      4.53180733	     45.48826753	     66.97414138	      0.00000000	      0.00000000
      4.77000000	     -7.64861791	      1.64902550	     -1.23267327	      1.26380377	      0.99447661	     -0.46674855	     30.49915118	     -2.67407080	      3.30294295	      6.14401820	      0.10723335	     10.52063908	      0.00000000	      0.00000000	     -8.17983469	      1.40324272	     -3.67371601	     16.31771485	      0.28479785	     10.90847603	      0.00000000	      0.00000000	     -5.22535781	      3.11004113	     -1.03348035	    -11.77792035	     -8.91611713	     -8.34703688	     40.07841449	     74.32211382	      0.00000000	      0.00000000	      0.44282187	     -6.58577669	      4.19717857	     45.25923257	     66.95977010	      0.00000000	      0.00000000
      4.78000000	     -7.73903813	      1.59211724	     -0.99312108	      1.26599673	      0.99228492	     -0.46597044	     30.84996172	     -2.69554432	      2.70492283	      7.89750447	      0.13783746	      9.85438947	      0.00000000	      0.00000000	     -7.87714976	      1.04461983	     -3.84428776	     18.40495803	      0.32122712	     10.50539245	      0.00000000	      0.00000000	     -4.81564175	      3.31732157	     -1.04058017	    -12.04269253	     -9.02175046	     -8.24092150	     40.12967755	     74.39576020	      0.00000000	      0.00000000	     -0.01339250	     -6.24076805	      3.83934081	     45.04729979	     67.02918893	      0.00000000	      0.00000000
      4.79000000	     -7.58858778	      1.62924885	     -0.85629840	      1.26833432	      0.99084796	     -0.46509352	     30.63352970	     -2.75741689	      2.64084816	      8.91790137	      0.15564674	      8.50318164	      0.00000000	      0.00000000	     -8.02941484	      0.86224557	     -3.65451991	     19.94626309	      0.34812796	      9.39897624	      0.00000000	      0.00000000	     -4.70068844	      3.42395050	     -0.89154515	    -12.28344732	     -9.14860934	     -8.18651298	     40.12207826	     74.42085948	      0.00000000	      0.00000000	     -0.41457200	     -5.97159968	      3.69084506	     44.84447759	     67.06695343	      0.00000000	      0.00000000
      4.80000000	     -7.98964556	      1.31469667	     -0.54745761	      1.27033105	      0.98864433	     -0.46430376	     31.26812525	     -2.53996400	      1.52934584	     10.57650749	      0.18459488	      7.64959900	      0.00000000	      0.00000000	     -6.65294934	      0.02142325	     -4.55983241	     23.44426345	      0.40917959	      9.09121948	      0.00000000	      0.00000000	     -3.92096265	      3.92150908	     -0.94542195	    -12.62283821	     -9.36347545	     -7.98302795	     40.31640298	     74.50858727	      0.00000000	      0.00000000	     -0.90588205	     -5.57726540	      3.15777700	     44.40802601	     67.30223721	      0.00000000	      0.00000000
      4.81000000	     -8.19341781	      1.17192491	     -0.32266782	      1.27215848	      0.98733312	     -0.46346151	     31.54735234	     -2.47837311	      0.88846241	     12.02623575	      0.20989741	      6.65595170	      0.00000000	      0.00000000	     -5.64348307	     -0.54962983	     -4.95054387	     26.38539111	      0.46051195	      7.99198469	      0.00000000	      0.00000000	     -3.42409928	      4.20882282	     -0.89843387	    -12.83955058	     -9.54363251	     -7.81929266	     40.39891181	     74.57792651	      0.00000000	      0.00000000	     -1.33096139	     -5.25943238	      2.76195869	     44.01289427	     67.60590958	      0.00000000	      0.00000000
      4.82000000	     -8.16812000	      0.89480415	     -0.12064444	      1.27375661	      0.98682938	     -0.46255886	     31.58026165	     -2.31447896	      0.12892782	     13.64340980	      0.23812242	      6.11317860	      0.00000000	      0.00000000	     -4.71565435	     -1.30392343	     -5.39625969	     29.49880230	      0.51485123	      6.61904746	      0.00000000	      0.00000000	     -3.25370904	      4.64784822	     -0.76382060	    -12.96880671	     -9.73477967	     -7.71121542	     40.51764800	     74.62853082	      0.00000000	      0.00000000	     -1.62712080	     -4.89902743	      2.38792606	     43.53411718	     67.81866429	      0.00000000	      0.00000000
      4.83000000	     -8.24914084	      0.64700154	      0.03851388	      1.27486087	      0.98660039	     -0.46150386	     31.85388312	     -2.19122963	     -0.48926195	     15.55558753	      0.27149622	      5.82733516	      0.00000000	      0.00000000	     -3.44625450	     -2.03402477	     -5.70380054	     32.86803007	      0.57365534	      5.00763672	      0.00000000	      0.00000000	     -3.01303748	      5.03064660	     -0.57671997	    -13.06555212	     -9.88275367	     -7.59491464	     40.76152854	     74.68187352	      0.00000000	      0.00000000	     -1.89289761	     -4.58094246	      2.00494720	     43.05833486	     68.12454274	      0.00000000	      0.00000000
      4.84000000	     -8.16262280	      0.31377441	      0.05062253	      1.27573003	      0.98703878	     -0.46038899	     31.89989802	     -1.93524107	     -0.87355052	     17.39673384	      0.30363028	      5.77629189	      0.00000000	      0.00000000	     -2.26004839	     -2.84751564	     -6.06289870	     36.26830651	      0.63300136	      3.05783633	      0.00000000	      0.00000000	     -3.05106921	      5.52107871	     -0.20920930	    -13.09503551	    -10.16056243	     -7.50862004	     41.03531942	     74.71398956	      0.00000000	      0.00000000	     -2.11566375	     -4.25916423	      1.67623033	     42.58736815	     68.47273179	      0.00000000	      0.00000000
      4.85000000	     -7.86814185	     -0.11556232	     -0.10653939	      1.27640153	      0.98816404	     -0.45901608	     31.55772764	     -1.47736901	     -0.99187834	     18.90063926	      0.32987839	      5.77141978	      0.00000000	      0.00000000	     -1.23017677	     -3.76867532	     -6.48112108	     39.62653530	      0.69161351	      0.86429933	      0.00000000	      0.00000000	     -3.38030134	      6.10239837	      0.33591254	    -13.03648013	    -10.47270686	     -7.38811178	     41.36818634	     74.73402241	      0.00000000	      0.00000000	     -2.30565095	     -3.95590614	      1.40871721	     42.19841077	     68.67180289	      0.00000000	      0.00000000
